<svg version="1" xmlns="http://www.w3.org/2000/svg" width="400" height="400" viewBox="0 0 300.000000 300.000000"><g fill="#0C0C0C"><path d="M106.5 8.2c-1.1.6-3.2 2.2-4.7 3.6L99 14.4l-2.8-2.7c-2.3-2.2-3.4-2.6-6-2.1-1.7.3-3.3 1.3-3.6 2.1-.5 1.1-.2 1.3.9.9.9-.3 1.8.1 2.2 1 .9 2.3-.1 2.5-4.7.9-5.5-1.9-12.1-1.9-14.6 0-1.8 1.4-1.7 1.5 1.7.9 2.7-.4 5 0 8.5 1.7 2.7 1.2 4.2 2.3 3.4 2.5-13.3 2.2-16 2.9-16 3.7 0 .6 1.8.7 4.8.2 7.6-1.3 10.7-1 14 1.4 4.1 2.9 4 3.8-.3 3.3-4.4-.5-9.6.4-12.1 2.2-1.6 1.2-1 1.4 5.1 1 6.6-.3 6.7-.3 2.5.7-9.7 2.1-9.8 2.2-3.2 2.9 4.5.5 7 1.3 8.4 2.8l2.1 2.1-2.9.6C78 42.4 75.8 43.3 73 45.6c-1.6 1.4-3 3.1-3 3.6 0 .6.9.3 1.9-.6 1.1-1 3.9-2 6.3-2.2l4.3-.5-3 1.4c-1.7.8-3.7 2.2-4.5 3.2-1.4 1.7-1.4 1.7.7.7 2.5-1.4 12.2-1.6 14.2-.3 1.1.7.6 1.6-2 4.1-3 2.8-3 3-.7 1.6 4.2-2.5 5.8-2.1 6 1.6.1 4.3-.3 9.2-.9 9.8-.2.3-3.2.7-6.6 1-4.8.4-6.2.9-6 2 .3 2.1 4.8 15.3 6.1 17.7.7 1.3.8 2.3.1 3-2 2 2.1 3.7 8.9 3.7 6.7.1 12.6-1.9 10.3-3.3-.9-.6-.6-2 .9-5.5 1.1-2.6 2-5.2 2-5.7s.7-2.6 1.6-4.7c3-6.7 3-6.9-3.6-7.6l-6-.7V63c0-3.9.3-4.8 1.4-4.4.8.3 2.3.1 3.3-.5 1.7-1 1.7-1-.2-1.1-2.3 0-4.5-1.8-4.5-3.4 0-.7 2.3-1.1 5.3-1.1 3.6 0 6.2-.6 8.2-2l3-2-7.8-.3c-6.8-.2-7.8-.5-7.5-2 .4-2.1 5.8-2.8 8.9-1.2 1.6.9 2 .9 1.4 0-.4-.7-2.1-1.8-3.8-2.5l-3.1-1.3 5.7-1.8c3.2-1 6.5-2.7 7.5-3.8 1.6-1.9 1.6-1.9-.3-1.2-2.4.9-10.9 2.5-11.2 2.2-.2-.1.8-1.3 2.2-2.6 1.8-1.7 4.2-2.5 8.7-3l6.3-.6-4.7-.8c-2.5-.4-5.6-.5-6.8-.1-1.6.5-2.1.3-1.8-.6.7-2.2 12.6-7.9 16.4-7.9 4.4 0 3.6-1.5-1.1-2.4-5.2-1-11.1 1.2-16.7 6.3-3.9 3.5-4.9 4-4.4 2.3.6-1.7.4-2.1-.8-1.6-2.9 1.1-1.7-1.6 2.7-6 2.4-2.3 6.7-5.6 9.7-7.2 3.3-1.8 4.7-3 3.7-3.2-1.8-.4-8.5 2.6-13.6 5.9l-3.3 2.2 1.6-2.9c.9-1.6 2.3-3.9 3.2-5.2 1.8-2.5 1.7-2.6-1.1-1zm104.6 4.3c-.2 5.8-.2 5.9-1.7 3.5-1.4-2.4-1.4-2.2-.8 3l.6 5.5-3.1-4.1c-1.7-2.3-3.8-4.5-4.6-4.8-2.4-.9 1.7 6.3 5.9 10.3 3.2 3.1 4.8 7.1 2.8 7.1-.4 0-2.6-1.8-5-4-4.1-3.9-5.7-4.8-11.2-6.5-4.8-1.4 3.7 6.1 10.6 9.4 5.8 2.8 6.4 3.4 6.4 6.1 0 3.6-.3 3.7-4.4.5-1.8-1.4-3.8-2.5-4.4-2.5-.6 0-2.5-1.2-4.3-2.7-3.1-2.7-3.2-2.7-2.4-.3.7 2.2.6 2.3-3.1 1.7-3.6-.6-3.8-.5-1.9.9 1.1.8 3.1 1.8 4.5 2.1 1.4.3 3.8 2.1 5.3 3.9 1.6 1.9 3.4 3.4 4.1 3.4 2.2 0 5.6 4 5.6 6.5 0 3-.5 3.1-3.2.5-3.2-2.9-10-6-13.4-6h-2.9l3.5 2.2c3.5 2.1 3.5 2.2 1 2.8-2.3.6-2.3.6 1.3 2.3 2.1 1 5.6 2.1 7.9 2.5 3.4.6 4.3 1.3 5.1 3.5 1.2 3.8.6 4.1-3.9 1.8-2.2-1.1-5.5-2.3-7.4-2.7-3.5-.6-3.5-.6-1.2 1.1 1.3.9 4.4 2.2 7 2.8 3.6.9 4.8 1.7 5 3.3.3 1.8-.4 2.2-3.5 2.7-2.1.4-5.3.7-7.1.7-4 0-4.9 1.9-2.9 6.3.8 1.7 1.8 4.3 2.2 5.7.4 1.4 1.6 4.2 2.6 6.2 1.1 2.1 1.5 3.8.9 3.8-2.2 0-.8 3 1.8 3.7 6.8 1.9 21-.3 17.2-2.7-1.1-.7-.9-1.8.7-5.7 1.2-2.6 2.4-6.3 2.8-8 .3-1.8 1.1-3.5 1.6-3.8.5-.4.9-1.7.9-2.9 0-1.9-.7-2.5-3.7-3-2.1-.3-5-.6-6.5-.6-2.6 0-2.7-.2-2.6-4.8.1-4.2.6-5.2 4.4-9.2 2.5-2.5 6.3-6.5 8.7-8.8 2.3-2.4 5.6-5 7.2-5.8 2.6-1.3 2.7-1.4.5-1-1.4.3-3.5.9-4.8 1.2-1.9.5-2.1.3-1.5-1.2.8-2.2-10.6 6.4-13 9.8-1.6 2.3-1.6 2.2-1.6-2.4-.1-4.5 0-4.7 5.2-7.7 2.8-1.6 6.3-4 7.7-5.1l2.5-2.1-2.5.6c-1.4.4-4.9 2.2-7.7 4.1L213 39v-2.4c0-1.6.7-2.7 2-3.1 1.1-.4 4.1-2.2 6.7-4.2 2.5-1.9 5.7-3.6 7-3.7 3.5-.2 2.8-1.6-.8-1.6-2.8 0-3-.2-1.8-1.7 2.8-3.3-3.4.7-8.3 5.5-4.7 4.6-4.8 4.6-4.8 1.9 0-1.5 1.6-4.8 3.9-7.8 4.2-5.5 8.2-14.1 5.6-11.9-.8.6-2.8 3.4-4.6 6.1-1.7 2.7-3.3 4.8-3.5 4.6-.2-.2.1-1.9.6-3.8 1.4-4.9 1.1-7-.5-2.9l-1.2 3.5-.7-4c-1.3-7-1.4-7.1-1.5-1zm-1.4 30.2c.9 2.3-.6 2.7-2.7.8-1.1-1-2-2.1-2-2.6 0-1.2 4.1.3 4.7 1.8zm8.3 7c-.1 1-3.6 5.3-4.4 5.3-1.2 0-.6-2.4 1.1-4.2 1.6-1.8 3.3-2.4 3.3-1.1zM37 25c-.8.5-2.5 1-3.8 1-1.2 0-2.5.7-2.8 1.5-.4.9-1.9 1.5-3.6 1.5-3.5 0-8.3 2.3-9.1 4.5-1.3 3.3 1.8 6.1 5.4 5 1.1-.4 1.9-.2 1.9.3 0 .6 1.1 1.3 2.5 1.6 1.4.4 2.5 1.1 2.5 1.7 0 .7-.7.8-1.7.3-1-.4-5-.9-9-1-6.4-.2-7.4 0-9.5 2.1-5.6 5.8-5.9 6.3-5.6 9.7l.3 3.3 12-.3c11.4-.2 12.1-.4 14-2.7 1.6-2 2.4-2.2 3.3-1.3 1.7 1.7 1.6 2.5-2 10-2.9 6-3.6 6.8-6.1 6.8-3.2 0-4.4 2.2-2.9 5.3 3.1 6.3 6.2 15.6 5.6 17.2-.4 1-.1 2 .7 2.5 4.7 2.9 19.7 1.6 18.5-1.6-.6-1.6 3.9-16 5.6-17.8.4-.6.8-2 .8-3.3 0-1.8-.6-2.3-2.7-2.3s-3.8-1.3-7-5.1c-4.8-5.7-5.2-7.7-2.3-10.4 1.1-1 2-2.4 2-3.2 0-.7.6-1.6 1.4-1.9.8-.3 1.2-1.3.9-2.4-.6-2.2 1.5-3.6 3-2 .9 1 .9 1.4-.1 1.7-.8.3-.5 1.1 1.1 2.3 3.4 2.7 14.5 2.1 16.5-.9 1.3-1.8 1.1-2.7-1.7-8.5-3.6-7.4-8.7-11-14.2-9.9-2.5.5-3.5.1-5.5-2.1-2.6-2.7-5.8-3.3-8.4-1.6zm-.1 19.6c1.7 1.4 3.1 3.2 3.1 4 0 2.1-4.9 1.8-5.6-.4-.3-.9-1-2.5-1.5-3.4-1.9-3.7-.2-3.8 4-.2zm2.2-.9c1.3 1.6 1.2 1.7-.3.4-1.7-1.3-2.2-2.1-1.4-2.1.2 0 1 .8 1.7 1.7zm97.7-11c-1.9 2-2 2.5-.8 3.3.8.5 1.8 1 2.3 1 1.4 0 .7 3-.8 3-.8 0-2.2 1.1-3.1 2.5-.9 1.4-2 2.3-2.4 2-.5-.3-1.5.9-2.4 2.5-1.3 2.7-1.3 3.2 0 3.7 2.4.9 1.6 2.3-1.4 2.3-2.5 0-3 .6-4.1 4.1-.7 2.3-1.1 4.2-.9 4.3 3.3 1.9 6 2.7 7.2 2.3 1.8-.7 2.1.4.5 2-.8.8-.5 1.4 1.1 2.3 1.9 1 2.4 1 3.2-.4 1.1-2 4.2-2.1 5.8-.1 1 1.2.9 1.5-.6 1.5-3.6 0-4.5 1.3-2.9 4.4.8 1.6 1.5 3.3 1.5 4 0 .6 1.1 3.8 2.5 7 1.7 4.2 2.1 6.3 1.4 7.2-.7.9-.5 1.5.8 2.2 5.7 3.1 20.2 1.9 18.9-1.5-.6-1.5 3.3-14.8 5.4-18.5 1.3-2.3 1.3-4.5-.1-5-.7-.2-.5-.9.5-1.7 1.3-1.1 1.7-.9 2.6 1.4.9 2.3 1.3 2.5 2.5 1.5.8-.7 1.5-.9 1.5-.4s.5.1 1.1-.9c.7-1.2 1.7-1.6 3-1.2 1 .4 1.9.2 1.9-.4 0-1.5-2.2-6.1-3-6.1-.4 0-.6-1.4-.5-3.2.1-2.2-.5-3.8-1.9-5-1.7-1.4-1.8-1.7-.5-1.8 1.6 0 3.6-3 2.1-3-.4 0-1.2-1.5-1.7-3.3-.8-2.5-1.5-3.1-3.2-3-1.7.2-2.9-.7-4.5-3.2-2.4-3.6-4.5-4.4-6.6-2.3-1 1-1.5 1-2.2-.2-.5-.8-1-2.3-1-3.3 0-2.1.1-2.1-3.8-.1-2.8 1.3-3.5 1.4-6.4.1-5.8-2.7-8.5-2.6-11 0zm128.1 4.7c-.7 1.4-1.7 2.2-2.5 1.9-.9-.3-1.4.2-1.4 1.5s-.9 2.2-2.6 2.6c-1.7.5-2.4 1.2-2 2.1.3.8-.5 2.2-1.7 3.1l-2.2 1.6 2.3-.5c2.6-.6 2.8 0 .7 2.3-1.4 1.6-1.4 1.7 1 1.3 3-.6 3.2.1.4 3-1.6 1.8-2 3.2-1.7 7.4.3 4.6.1 5.3-1.9 5.8l-2.1.5 2.4 7c1.2 3.8 3 8.3 3.9 10 1.2 2.3 1.3 3.5.6 4.4-1.7 2 .6 3.3 7 4.1 6.4.8 14.2-1.6 12.1-3.7-.8-.8-.7-1.8.3-3.7.7-1.4 2.1-5.2 3-8.3.9-3.2 2.1-6 2.6-6.3 1.8-1.2.9-4.4-1.3-4.7-1.9-.2-2.2-.8-2-3.4.2-1.8-.4-4.9-1.3-6.9-1.7-4.3-1.3-5.5 1.5-3.7 2.4 1.4 2.6.4.5-2.4-2-2.7-1.9-3.2 1.3-3.6l2.7-.4-3-1.4c-4.1-1.9-4.1-1.8-1.9-3.6 1.8-1.4 1.7-1.5-1.3-1.1-3 .3-3.3.1-3.3-2.5 0-3.3-1-3.5-3.5-.8-2 2.2-3.5 1.8-3.5-1 0-3-1.9-3.4-3.1-.6z" class="node"/><path d="M225.5 57.6c-.5.1-2.6.5-4.6.8-1.9.4-4.4 1.3-5.5 2.1-1.7 1.3-1.2 1.4 4.6.8 6.4-.6 14.9-3 12-3.4-3.9-.5-5.6-.6-6.5-.3zm-10.6 48.8c-2.1.9-2.4 1.5-1.8 3.1.4 1.1.8 2.8.8 3.9.1 1.4-.2 1.6-1.3.7-.7-.6-2.1-.9-2.9-.5-1.4.5-1.5.8-.2 2.8.8 1.3 1.2 2.6.8 3-.4.4 0 .4 1 0 1.2-.4 1.7-.1 1.7 1 0 .9-.4 1.6-.9 1.6s-1.6.3-2.4.6c-1 .4-1.8-.8-2.8-4-.7-2.5-1.9-4.6-2.6-4.6-1 0-1.2-1.1-.7-4 .5-3.1.3-4-.8-4-1.4 0-2.9 2.3-4.2 6.4-.4 1-1.2 1.6-2 1.3-.8-.3-2.2 0-3.1.7-1.4 1-1.4 1.4-.3 2.3.7.6 2.2 1.3 3.3 1.5 1.1.2 1.9 1.1 1.9 2.1-.1.9.3 1.7.8 1.7s1.6.6 2.4 1.4c.7.8 1.8 1.6 2.4 1.8.6.2.4 1.8-.4 4.3-1 2.8-1.1 4.6-.4 5.8.5 1.1.8 2.7.5 3.8-.3 1 0 1.7.6 1.6 1.8-.3 2 3.3.2 3.9-2.4.9-3.4-.5-3.7-5.4-.2-2.3-.3-4.2-.3-4.2s-1.5-.4-3.4-1c-1.9-.5-3.1-.7-2.8-.3.4.3.2 1.4-.4 2.5-.7 1.4-.6 2.7.5 5 2 4 2 4.1-.5 3.5-1.1-.3-2.7-.3-3.5 0-1.9.7-1.8 4.3.1 4.3.8 0 1.5.4 1.5 1 0 .5.7.7 1.6.3 1-.4 2.2 0 2.8.8.6.9 1.8 1.8 2.7 2.1 1.9.7 3.1 5.5 1.5 6.2-.7.3-.6.5.2.5 2.7.2 0 2.1-2.9 2.1-3.7 0-4.4 1.7-2.4 5.6.8 1.6 1.5 3.6 1.5 4.4 0 .8 1.1 3.8 2.4 6.7 1.7 3.6 2.1 5.3 1.3 5.7-.8.3-.5 1 .7 2 3.9 3.1 21.3 1.4 18.6-1.9-.8-1 1.7-9.8 4.9-17 2.2-5 2.1-5.4-1.4-6.1-3.9-.7-3.9-.7-2.3-3.7.7-1.2 1.2-3.1 1.2-4.2.1-1.3.9-2.1 2.4-2.3 1.2-.2 2.2-.8 2.2-1.3s.7-.9 1.6-.9c.9 0 1.2-.5.8-1.2-.4-.6.1-1.7 1.1-2.5 1.1-.7 1.3-1.3.7-1.3-.7 0-1.2-.6-1.2-1.3 0-2-4.3-1.5-6.2.8-1.6 2-1.7 2-3.8-.3-2.3-2.4-2.1-5.2.4-5.2.9 0 1.2-.7.9-2.1-.5-1.9-.3-2.1 2.9-1.7 2.6.3 3.4 0 3.1-.9-.3-.9.4-1.3 2.1-1.3 1.8 0 2.4-.4 2-1.5-.4-1 0-1.5 1.3-1.5 1.6 0 1.8-.6 1.5-4-.2-2.2-.8-3.8-1.2-3.5-.5.3-1.1.2-1.4-.3-1.1-1.9-6.3 0-8 3-1.7 2.8-1.9 2.9-3.2 1-1.1-1.6-1-2.4.4-5.6 1.4-3 2.1-3.7 3.9-3.3 1.3.2 2.3.1 2.3-.4 0-.4.8-1 1.8-1.3 1-.3 1.8-1.5 1.8-2.6 0-1.5-.5-1.8-1.8-1.4-1 .3-1.8 0-1.8-.6s-1-.1-2.2 1c-2.6 2.4-4.6 2.3-6.2-.3-.8-1.3-.8-1.9 0-2.5 2.3-1.4-.9-2.9-3.7-1.8zm-112.8 2c-1.3 2.3-1 13.4.4 18.1.3 1.1 0 2.8-.8 3.9-1.2 1.6-1.5 1.3-2.6-4-.7-3.3-1.9-6.9-2.7-8.1-.8-1.2-1.4-2.9-1.4-3.8 0-.8-.5-1.5-1.1-1.5-.8 0-1 1.2-.6 3.5.4 2.7.2 3.5-.9 3.5-.8 0-1.2-.4-.9-1 1.1-1.9-1.9-4.6-5.2-4.6-1.7 0-2.9.4-2.7.8.3.4.1.8-.5.8s-.8.7-.5 1.5c.4.8.1 1.5-.5 1.5-.8 0-.6 1 .4 3 1.7 3.2 3.4 3.7 6.7 1.9 2.7-1.4 4.7.7 7.6 8 2.5 6 2.6 7.1 1.2 7.1-.5 0-1-.7-1-1.5s-.4-1.5-1-1.5c-1.4 0-1.3 5.6.2 8 1 1.5.9 2.6-.6 5.7l-1.9 3.8-1.9-4.5c-1.6-3.6-1.8-5.1-.9-7.5 1.3-3.7 1.7-10.2.8-11.1-.9-1-3.6 2.6-3.7 4.8 0 1.8-2 3.7-2 1.9 0-1.3-4.9-7.1-6.1-7.1-.4 0-.6.7-.3 1.5.5 1.2 0 1.4-2.7.9l-3.4-.7 4.1 3.9c4.3 4.1 7.8 9.7 7.1 11.7-.2.6-1.1.3-2.3-.9-1.1-1.1-2.8-2.4-3.8-2.7-.9-.4-1.4-1.1-1.1-1.7.3-.6-.1-1.3-.9-1.6-.9-.3-1.6-1.3-1.6-2.1s-.5-1.1-1-.8c-.6.3-1.3-.1-1.6-.9-.5-1.4-.8-1.4-2.1-.1-.8.9-1.9 1.2-2.5.9-.6-.4-.9-.1-.6.7.3.8-.4 2.2-1.5 3.1-1.1 1-1.5 1.8-.9 1.8.7 0 1.2.9 1.2 2s.7 2 1.6 2c.9 0 1.2.5.8 1.2-.5.9-.2.9.9-.1 1.3-1 1.7-1.1 1.7-.1 0 .9.6.8 1.9-.4 1.8-1.7 2-1.6 4 .1 2.6 2.1 2.7 3.3.4 3.3-2.2.1-5.3 2.3-5.3 3.9 0 .7.9.9 2.3.7 8.7-1.8 9.2-1.7 12.6 1.8 3.2 3.3 3.2 3.3.9 4-1.3.3-3.5.6-4.9.6-1.4 0-2.8.2-3.1.6-.7.6 3.4 12.9 5.7 17.5 1.4 2.6 1.5 3.3.3 4.1-2.6 1.7 2.2 3.8 8.8 3.8 6.7 0 12.7-1.6 10.7-2.8-.8-.5-.3-3.1 1.8-9.2 1.7-4.7 3.4-8.9 4-9.4 1.4-1.5 1.1-4.3-.7-5-.9-.3-3.6-.6-6-.6-5.1 0-5-.3.3-6.4l3.3-3.6 3.8 1.9c4.7 2.4 13.2 3.8 13.2 2.2 0-.6-1.2-1.6-2.7-2.1-1.6-.6-3.7-1.5-4.8-2-1.1-.5-3-1.2-4.2-1.5-4.4-1.2-2-3.9 4.4-5 2.4-.4 5.3-1.5 6.5-2.5 2.1-1.7 2.1-1.9.6-2.5-.9-.4-3.3-.1-5.3.5-2 .7-3.9.9-4.3.5-.7-.7 2.8-4 5-4.7 1-.4.9-1.4-.1-4.6-1.6-4.8-2.7-5.4-7.3-4.1-3.2.8-3.4 1.1-3.3 5.1.1 2.4.5 5.1 1 6.1.8 1.9-.7 4.6-4.7 8.7-1.4 1.4-3 3.4-3.6 4.5-2.2 3.8-1.4-2.1.8-6.2 1.1-2.1 2-5 2-6.5s.4-3.8 1-5.2c.5-1.3 1-6.2 1.1-10.8.3-7 .6-8.6 2.3-10 2.5-2 1.6-3.4-1.2-1.9-1.8 1-2.1.7-2.7-1.9-.8-3.6-1.7-3.8-3.4-.6zm52.4-1.2c-1.6.6-3.8 1.8-4.8 2.7-1.7 1.4-2 1.4-3.2-.2-1.5-2.1-4.8-2.2-6.5-.2-.8.9-3.1 1.5-5.9 1.6-7.2.1-9.8 1.7-2.9 1.8 9.1.1 12.2 2.3 4.9 3.5-5.7.9-5.8 2.2-.3 1.7 5.5-.4 5.4-.3-3.4 5.5-4.8 3.1-6.1 4.4-4.5 4.4 1.2 0 3.8-.8 5.9-1.9 2-1 5.4-2.6 7.5-3.4 3.5-1.5 3.7-1.5 3.7.3 0 1-1.5 2.8-3.2 4-1.8 1.2-2.4 1.9-1.3 1.5 5.5-2 5.1-2.9 6.4 15 .7 9.2 1 16.9.7 17.2-.3.3-2.8.8-5.6 1.1-2.8.2-5.2.8-5.5 1.2-.2.3.3 1.9 1.1 3.4.7 1.6 1.4 3.3 1.4 4 0 .6 1.1 3.8 2.5 7 1.7 4.2 2.1 6.3 1.4 7.2-1.7 2 2.2 3.4 9.6 3.4 7.2 0 10.7-1.2 9.9-3.4-.5-1.4 4.2-16.3 5.8-18 1.3-1.6.9-4.3-.8-5-.9-.3-2.9-.6-4.5-.6-2.4 0-2.9-.4-2.5-1.8.6-1.8 2.6-18.4 2.6-21.5 0-2.6 1.3-2.1 5.5 2l3.8 3.8-1.8-3.5c-.9-1.9-2.7-4.3-3.9-5.2-2-1.7-2-1.8-.1-1.8 1.1 0 3.8 1.1 6 2.5 2.2 1.3 4.4 2.5 4.9 2.5 1.4 0-1.6-3.2-4.8-5.1l-2.8-1.7 4.8-1.6 4.9-1.5-4.2.2c-2.4.1-4.3-.1-4.3-.5s-1.7-1.6-3.7-2.6c-4-2.1-3.8-2.2 3.3-3.7 1.7-.3 4.2-1.8 5.5-3.2 1.4-1.5 1.8-2.3.9-2-6.6 2.5-12.1 3.9-12.7 3.3-.4-.4.6-1.8 2.2-3.1 4.6-3.8.7-3-4.8.9-3 2.1-5.5 3.2-6.7 2.9-2.2-.6-2.7-2.3-.7-2.3 1.7 0 13.5-7.1 14-8.4.3-.7-1.7-.1-4.3 1.2-5.3 2.6-13 4.1-13 2.5 0-1.3 2.7-3.6 6.5-5.6 3.4-1.8 1.6-2.1-3-.5zm-10.7 3.7c.3.8-.1 1.2-.9.9-.7-.2-1.5-1-1.7-1.7-.3-.8.1-1.2.9-.9.7.2 1.5 1 1.7 1.7zm8.2 11.6c0 .1-.9.5-2 .8-1.2.3-2 0-2-.8s.8-1.1 2-.8c1.1.3 2 .7 2 .8zm4 4c0 1-1 1.5-2.7 1.5l-2.8.1 2.8 1.5c3.4 1.8 3.5 4.7.2 6.8-3 2-3.5 4.2-.5 2.6 1.9-1 2-.8 2 6.7 0 10-.9 15.3-2.6 15.3-1.7 0-2.2-3.4-3.3-20-.7-11.6-.6-13.7.8-14.8 2.1-1.7 6.1-1.5 6.1.3zm11.5.5l3 1.2-2.9 1.1c-2.1.7-3.5.6-4.8-.2-1.5-.9-1.8-.8-1.8.6 0 1.6-.2 1.6-1.5.2-1-.9-1.3-2.3-.9-3.3.7-1.9 3.2-1.8 8.9.4zm-6 12.7c-2.8 22.1-4.9 26.8-4 9.4.3-6.8.8-12.8 1.1-13.3.3-.4 1.2-.8 2-.8 1.2 0 1.4.9.9 4.7zM38.8 117.6c-.5.4-.8 1.8-.8 3.1 0 2.7-.8 2.9-2.6.5-1.2-1.5-1.3-1.4-1.4 1.5 0 4-1.2 4.2-4 .5l-2.1-2.7.6 3.8c.6 3.7.5 3.8-1.6 2.6-2-1-2.1-.9-1.4.7 1.6 3.9 1.1 4.9-2 4.6-2.8-.3-2.9-.3-1.2 1.6 2.1 2.3 2.2 3.3.2 2.6-2.3-.9-3.7.5-2.5 2.7.9 1.5.7 1.9-.5 1.9-1.9 0-1.9 1.4 0 3 .8.7 1.2 1.6.9 2.1-.3.5 0 .9.6.9s.8.4.5 1c-.4.6 1.1 1 3.7 1 4.3.1 4.3.1 1.8 1.6s-2.4 1.5 1.7 1.2c2.3-.2 3.9 0 3.7.4-.3.5.4.8 1.5.8 1.8 0 2.1.6 2.1 3.9v3.9l-6.6.7c-6.6.7-8.7 2.2-6.6 4.8.5.6 1.7 3.7 2.7 6.7 1 3 2.4 6.7 3.1 8.1.9 1.9 1 2.9.2 3.7-2.7 2.7 11.8 4.4 17.7 2.2 2.1-.8 2.5-1.3 1.6-2.4-.8-1-.6-2.4.9-5.7 1.1-2.4 2-5.1 2-5.9 0-.8.6-2.6 1.3-4 .8-1.4 1.6-3.5 1.9-4.7.7-2.5-1.2-3.3-7.9-3.3-4.1 0-4.3-.1-4.3-3 0-2.2.6-3.3 2.3-4 1.2-.5 1.6-.9 1-.9-.7-.1-1.3-.5-1.3-1 0-.6 1.7-.7 3.8-.4 3.4.6 3.6.5 2.3-1-1.2-1.5-.9-1.7 3.2-1.7 3.7 0 4.5-.3 4.1-1.5-.5-1.1.2-1.5 2.7-1.5l3.4-.1-4-2.1c-3.6-1.9-3.8-2.2-2.2-3.2 1.1-.6 2.6-1.7 3.5-2.4 1.5-1.2 1.4-1.3-.9-.8-4 .9-4.2-.5-.7-3.5l3.3-2.7-4.7 1.1c-2.7.6-5 .8-5.4.5-.3-.3.2-2.2 1-4.2 1.6-3.9 1.2-4.5-1.4-2.1-1.6 1.4-1.8 1.3-2.4-1.7-.6-3-.8-3.1-2-1.6-1.9 2.6-2.9 2.2-2.2-.8.6-2.1.4-2.5-.8-2.1-1.1.4-1.6.1-1.6-1.1-.1-1.6-.2-1.5-1.5.1-1.3 1.8-1.4 1.8-1.7-.3-.2-1.2-.6-1.8-1-1.4zm229.9 3.7c-1 2.3-2.3 7.3-2.9 11l-1.1 6.8-3.3-6.2c-3.5-6.5-6.6-10.4-9.8-12.1-2-1.1-1.8-.4 1.6 4.2 1.7 2.4 9.1 21 8.5 21.6-.1.1-3.1-3.4-6.6-7.9-3.6-4.5-6.6-7.6-6.8-7-.7 1.9 3.4 8.9 8.3 14.4 2.5 2.8 4.3 5.3 4.1 5.5-.2.2-2.3-.3-4.7-1.1-2.3-.8-5.9-1.5-7.9-1.5-3.5 0-3.5.1 2.3 2.5 7.8 3.2 9.5 4.9 4.1 4l-4-.6 4.5 2.3c5.2 2.7 5.7 4.2 1.5 4.6-5.6.5-5.6.5-2.3 9.9 1.6 4.8 3.5 9.4 4.1 10.1.8 1 .7 1.6-.4 2.3-1.2.8-1.1 1.2.5 2.4 2.7 2.1 12.4 2.3 17.4.4 2-.8 2.2-1.2 1.2-2.4-.9-1-.9-1.9-.2-2.8.5-.6 1.8-3.9 2.8-7.2 1-3.3 2.2-6.6 2.8-7.3.6-.8 1.1-2.2 1.3-3.3.3-1.9-1-2.5-6.7-3.1-2.3-.3-2.1-.6 2.3-3.2 5.7-3.4 5.6-4.2-.1-2.2-5.2 1.9-5.4.5-.4-2.6 4.8-2.9 11.2-8.7 11.2-10.1 0-.6-1-.1-2.2 1-2.1 1.9-10 6.3-11.3 6.3-2.3 0 9.8-15.4 14.2-18.1 1.9-1.2 3.2-2.3 2.9-2.6-.9-1-9.5 3.6-13.5 7.2-2.7 2.5-4.1 3.2-4.1 2.2 0-2.4 3.9-10.9 6.6-14.4 1.9-2.5 2.1-3.3 1-3.3-2.4 0-7.3 4.7-9.4 9.2l-2 4.3-.7-8c-.3-4.4-.7-8.3-.8-8.7-.1-.4-1 1.2-2 3.5z" class="node"/><path d="M186.8 191.3c4.7 4.9 7.3 9 11.8 18.3 4.9 10.2 10.4 26.1 10.4 30.1 0 2.4-1.5 1.3-2.6-1.9-.6-1.8-2-6.2-3.2-9.8-1.2-3.6-2.4-7.7-2.7-9.3-.3-1.5-1-2.7-1.6-2.7-.6 0-2-1.1-3.1-2.5s-2.4-2.3-2.9-1.9c-.6.3-1.7 0-2.6-.8-1-.7.4 1.7 3 5.3 6 8.5 10.1 17.4 12.7 27.3 3 11.7 3.1 11.3-4.5 11.8-3.5.2-6.7.7-7 1-.4.4 0 2.1.8 4 4 8.9 6.6 17.2 5.6 17.8-2 1.3 2.2 3.3 7.5 3.8 5.5.4 12.6-1.2 12.6-2.9 0-.5-.4-.9-1-.9-.5 0 0-2.1 1-4.6 1.1-2.5 2-5.1 2-5.7 0-.6.9-3 2.1-5.4 2.9-6.1 2.2-7.3-4.5-7.3-3 0-5.7-.4-6-.8-.7-1.2 1.9-12.8 4.5-19.7 1.7-4.6 3.9-7.6 9.3-13.1 3.9-3.9 8.6-8.2 10.5-9.6 4-3.1 3.5-5.7-.7-3-2.5 1.6-2.6 1.6-1.9-.1 1-2.5-.9-2.1-3.1.8-1.4 1.7-2.2 2.1-2.5 1.3-.5-1.5-6.6 4.9-6.7 7 0 .7-.4 1.1-.9.7-1.2-.7-3.1 2.6-3.1 5.3 0 1.1-1.5 5.8-3.2 10.4-3 7.5-3.3 8-3.6 5-.4-4.1 2.1-12.9 5.8-20.2 3.6-7.2 14.5-17.5 23.2-22 3.7-1.9 6.4-3.8 6.2-4.2-.8-1.3-5.9-.9-8 .7-2.5 1.9-3.5 1.9-2.8 0 .9-2.4-1.4-1.7-2.7.7-1.2 2.2-1.2 2.2-1.9.3-.6-1.8-.9-1.6-2.5 1.5-1.9 3.5-1.9 3.5-2.5 1l-.7-2.5-1.3 2.7c-1.4 3-2.5 3.5-3.3 1.5-.3-.7-.6-.5-.6.5-.1 1-.5 1.8-1.1 1.8-.5 0-1 1.2-1 2.6 0 1.4-.4 2.3-1 1.9-1.6-1-2.3 2.2-1.2 5.4.8 2.3.6 3.8-1.3 7.7-1.2 2.7-2.7 6-3.3 7.4-.9 2.2-1.1 1.7-1.1-3.5 0-3.3.4-8 1-10.4 1.3-5.8.6-6.2-1.8-1-1.5 3.2-1.9 5.8-1.7 11.1.2 3.8 0 6.7-.4 6.4-.5-.3-1.7-3.3-2.7-6.6-1.8-6-1.8-6.2 0-9.3 1.3-2.2 2-5.4 2.1-10.2.2-6.6.2-6.8-1.1-4-.8 1.6-1.4 3.5-1.5 4.2 0 .6-.4 1.4-.9 1.7-.5.3-.6-1.4-.4-3.9.3-2.4.2-5.6-.2-7.2l-.8-2.8-.9 3.2c-.9 3.5-2.8 4.5-2.8 1.5 0-1-.7-2.7-1.5-3.8-1.4-1.8-1.4-1.8-1.5.6-.1 2.4-.2 2.3-3.7-1.5-2.8-3.2-3.5-3.5-3-1.8.3 1.3.4 2.3.2 2.3-.1 0-1.9-1.4-4-3-6.3-5-6.2-3.4.3 3.3zM93.7 196c-.9 1.1-1.4 2.6-1.1 3.5.4.8.2 1.5-.4 1.5-1.4 0-1.2 5.2.3 7 .7.8 1.5 5.3 1.8 10 .6 8 .6 8.3-.8 5-.7-1.9-1.4-4.5-1.4-5.8-.1-1.2-.7-2.5-1.5-2.8-.8-.3-1.6-1.8-2-3.5-.3-1.6-1-2.9-1.6-2.9-.6 0-.9.4-.5.9.3.5.1 1.2-.4 1.5-.5.3-1.4-.8-2-2.4-1.1-3.4-2.2-4.1-1.4-1 .7 2.8-1.1 2.5-2.7-.5-1.5-2.9-3-3.3-3-.8 0 1.3-.3 1.4-1.2.5-1.7-1.7-3.1-1.5-2.4.3.6 1.8-.5 2-2.1.4-.7-.7-1.9-.9-2.7-.6-2.2.9-2.1 4.7.2 4.8 1 0 1.2.3.5.6-2.3.9-1.3 2.2 2 2.5l3.2.3-5 2.5c-5.6 2.8-6.5 5.3-2.2 5.8 3.1.4 3.7 2.2.7 2.2-1.1 0-2 .4-2 1 0 .5 1.1 1 2.5 1s2.5.4 2.5 1c0 .5-.5 1-1.1 1-.5 0-.7.5-.4 1 .3.6 1.7.7 3.1.4 1.4-.4 2.4-.2 2.4.5 0 .6-.5 1.1-1.2 1.1-.9 0-.9.3 0 1.2.9.9 1.8.9 3.8-.1 2.3-1 2.6-.9 2.1.4-.8 1.9 2.3 2.1 4.1.3 1-1 1.5-1 2.1.1.8 1.2 1.4 1 3.5-.7 1.6-1.2 2.2-2.3 1.6-2.7-.5-.3-1-1.3-1-2.2 0-.9-.9-2.7-2.1-3.9l-2.1-2.2L88 221c2.7-1.4 3.9-.2 4.2 4.2.5 7.3.7 8.5 1.7 11.2 1.5 3.7.9 4.2-2.3 2.1-1.6-1.1-2.6-1.3-2.6-.6 0 .8-.5.9-1.9.1-2.5-1.3-4.4-1.3-3.6.1.5.7-.5.8-3 .3-3.5-.6-3.7-.5-3 1.6.6 1.9.4 2.1-1.3 1.6-1.1-.4-2.3-.2-2.7.4-.3.5-.1 1 .4 1 .6 0 1.1.4 1.1 1 0 .5-.7 1-1.5 1-.9 0-1.5.9-1.5 2.4 0 2.9 1.8 4.4 2.6 2.2.9-2.3 2.4-2 2.4.4 0 2.6.8 2.5 3.7-.2 2-1.8 2.3-1.9 2.3-.5 0 2.1 1.9 2.2 2.7.1.5-1.3.7-1.3 1.4-.2.6 1 1.1.9 2.3-.7 1-1.3 1.5-1.5 1.6-.6 0 1.1.3 1.1 1.5.1 1.3-1.1 1.5-.7 1.5 2.9v4.1h-5.2c-2.9 0-6.3.3-7.5.6-2.2.6-3.1 3.3-1.6 4.8 1.3 1.3 5.5 13.9 5.6 17 .2 3.5 2.3 4.5 9.2 4.4 7 0 10-1 10-3.3s4.3-15.8 6.2-19.5c1.6-3.2.4-4-6.3-4h-5.2l-.7-7.5c-.5-6.2-.4-8 1-10.1 1.3-2 1.9-2.3 3-1.4 1 .8 1.4.8 1.8-.2.4-.8.8-.5 1.2.9.4 1.2 1.2 2 1.9 1.7.7-.3 1.8.8 2.6 2.3l1.3 2.8.7-2.5.7-2.5 1.1 2.7c1.2 2.9 4.9 4.1 3.8 1.3-.6-1.7.9-2.1 1.9-.5.3.5 1.4 1 2.3 1 1.2 0 1.3-.3.4-1.2-1.9-1.9-1.4-3 .7-1.8 2.7 1.4 3.6 1.3 2.2-.4-1-1.2-.8-1.5 1-1.8 2.7-.4 3.8-2.8 1.3-2.8-1.6 0-1.6-.1 0-1.9 2.2-2.5 1.1-4.5-2-3.7-1.8.5-2.2.3-1.8-.9.7-1.8-2.6-2.1-4.4-.3-.9.9-1.2.8-1.2-.5 0-1.8-2.5-2.3-3.5-.7-.3.5-1.1 1-1.6 1-.6 0-.7-.5-.4-1 1-1.6-1.1-1.1-2.5.5-1 1.1-1.5 1.3-2 .4-.5-.7-2.2.4-4.8 3.3l-4.1 4.3-.1-4c0-5.1.5-5.8 6.2-8.3 3.5-1.5 4.6-2.5 4.2-3.6-.5-1.2 0-1.6 1.9-1.6 2.8 0 6-3 4-3.7-1.7-.6-1.6-2.3.1-2.3.7 0 1.9-.7 2.6-1.5 1-1.2 1-1.5-.4-1.5-2.2 0-2-1.9.3-2.8 1.5-.6 1.7-1.2 1-3.1-.7-1.7-1.4-2.1-2.7-1.6-3.6 1.5-5.2 1.7-5.2.6 0-1.6-2.5-1.4-4 .4-1.5 1.8-3.4 2-2.4.3.5-.8.2-.9-1-.5-1 .4-2 .7-2.2.7-.2 0-.4 1.1-.4 2.5s-.4 2.5-1 2.5c-.5 0-1-.5-1-1.2 0-.6-.3-.8-.7-.4-.4.4-.6 2.3-.5 4.4.2 3.5.1 3.6-1.3 1.7-.9-1.1-1.3-2.6-.9-3.5.3-.8.7-2 .8-2.5.1-.6.4-1.5.7-2 .9-1.5.3-8.5-.7-9.5-.6-.6-1.6-.2-2.7 1zm4.3 30.1c0 1.1-.4 1.7-1 1.4-.5-.3-1-1.5-1-2.6s.5-1.7 1-1.4c.6.3 1 1.5 1 2.6zm55.8-14.5c-3.5 1.8-4.8 4.3-4.8 8.8 0 4-.5 4.3-3.1 2-1-.9-3.5-1.8-5.7-2.1-3.2-.4-4.4-.1-6.1 1.6-1.6 1.6-1.9 2.6-1.2 4 .6 1 .7 2.8.4 4-.3 1.3.1 2.9 1.2 4.2 2.1 2.2 2.7 6.9.9 6.9-2 0-5.4 5.1-5.4 8.1s1.6 4.1 4.3 2.7c1.4-.7 1.7-.4 1.7 1.9 0 1.5.7 4.1 1.5 5.7.8 1.5 1.5 3.3 1.5 3.8s1.2 3.9 2.6 7.5c1.9 4.7 2.3 6.7 1.5 7.3-2.3 1.3 1.9 3.4 8 3.8 6.9.5 12.2-1.2 11.5-3.7-.3-.9.8-5.2 2.3-9.6 2.5-7 3.2-8 5.2-7.9 1.3.1 2.7-.4 3.1-1 1.1-1.6 1-7.4-.2-8.1-1.6-1-1.2-1.9 2-3.7 5.2-3 3.1-7.8-3.4-7.8-1.6 0-2.6-.6-2.6-1.5 0-.8-.8-2-1.9-2.7-1.8-1.1-1.8-1.2 0-4.2 3.7-6 1.5-10.9-4-9.1-1.7.5-1.8.1-1.4-3.8.9-7.7-2-10.3-7.9-7.1zM42.5 213c-.3.5-1.5 1-2.5 1s-2.2.5-2.5 1.1c-1.1 1.8-1.3 7.3-.3 8.6C38.3 225 35.4 236 34 236c-.4 0-1.2-1.8-1.9-4s-1.6-3.8-2-3.6c-1.1.7-5.1-2.3-5.1-3.8 0-.7-.9-2.1-2-3.1-2-1.8-2.1-1.8-5.8.1-3.2 1.7-3.7 2.5-4 5.9-.3 3.6 0 4.1 2.9 5.4 2.2 1 3.7 1.1 4.8.4 5.8-3.6 6.4-3.8 6.8-2.6.3.7 1.1 1.3 1.8 1.3 1.4 0 4.1 6.7 3.2 7.7-.3.3-1.8-.4-3.3-1.6-1.5-1.1-3.4-2.1-4.3-2.1-2.3 0-6.1 2.8-6.1 4.6 0 .8-1.6 3.7-3.5 6.4-3.4 4.9-4.9 8.8-2.3 6.2.7-.7 3.3-1.2 5.8-1.2 5.5 0 8.5-1.9 10.5-6.7 1.1-2.6 1.8-3.4 2.6-2.6 1.3 1.3 3.1 10.1 2.4 11.3-.2.4-3.2 1-6.6 1.3-3.3.3-6.3.7-6.5 1-.6.6 5.3 17.6 6.7 19.3.7.8.7 1.4-.1 1.9-3.1 1.9 2.6 4.5 9.9 4.4 6.3-.1 8.6-1.1 8.7-4 .1-1.3 1.7-6.8 3.7-12.2 4-11.1 4.4-10.4-5.7-10.9-4.5-.3-4.9-.5-5.2-3.1-.3-2.9 1.9-3.9 3-1.2.7 1.9 6.2 1.9 9.4.1 2.3-1.2 2.3-1.3-2-4.2-2.4-1.6-5.6-3.1-7.2-3.4l-3-.5 2.5-2.7c2.7-2.9 5.3-2.9 9.4-.1 3 2 4.2 1.6 5.4-1.7 1.4-4.1 0-7.5-3.7-8.8-3.4-1.2-4.8-.5-7.6 4.1-1.2 2-2.4 2.7-3.6 2.4-1.6-.4-2 .5-2.9 5.7-.6 3.5-1.1 7.9-1.1 10 0 6.6-1.7 2.9-2.3-5.1-.8-8.9.5-14.9 3.2-15.8 1.1-.3 2.2-1.2 2.5-2 .3-.9 1.9-1.5 4.1-1.5 3.2 0 3.8-.4 5-3.4 1.3-3 1.3-3.8.1-6.1-.8-1.5-2.6-3.3-4.1-4.1-3.2-1.7-3.2-1.7-4-.4zm226 5.2c-.7 1.6-1.9 2.3-3.8 2.3-1.7 0-3.2.7-3.8 1.8-.7 1.2-2 1.7-3.7 1.5-2.1-.2-3 .3-4 2.4-.7 1.6-1.7 2.8-2.1 2.8-.5 0-1.1.9-1.4 2-.3 1.1-.9 1.9-1.4 1.8-.4-.1-1.8.3-3 1-2 1.1-2.1 1.5-1.1 3.8.8 1.7.9 2.8.1 3.2-.5.4-1.2 2-1.5 3.5-.4 2.1-.1 3 1.1 3.4.9.2 2.3.8 3.1 1.2 1.9.9 6 .2 6-.9 0-.5 1.3-.7 2.9-.4 2.2.5 3.4.1 5.1-1.6 1.2-1.2 2.3-2 2.5-1.8.2.2.7 2.6 1 5.4l.7 5.1-6.2.6c-3.4.3-6.4.7-6.6 1-.3.3 4.1 13 7.1 19.9.4 1.1.3 1.8-.4 1.8-2.3 0-1 1.8 2 2.9 4.1 1.4 10.7 1.4 14.8 0 2.8-1 4.3-2.9 2.2-2.9-1.1 0 4-15.2 5.8-17.4.7-.8 1.1-2.3.9-3.3-.3-1.5-1.5-1.9-6.5-2.1-5.3-.3-6.2-.6-6.7-2.5-.4-1.5.1-2.7 1.5-3.8 1.9-1.4 2.3-1.4 4.3.4 2.4 2.1 10.1 3.3 11.1 1.7.3-.6 1.7-1 3-1 3.6 0 4.6-4.6 1.6-6.9-1.8-1.4-2-2.2-1.3-4.1.6-1.6.5-3.2-.4-4.9-.7-1.4-1.6-3.8-1.8-5.2-.6-2.7-7.2-7.9-10-7.9-1.8 0-7.6-3.2-7.6-4.3 0-1.6-2.6-.5-3.5 1.5zm6.5 25.3c0 .8-.9 1.9-1.9 2.5-2.7 1.4-4-.9-1.6-2.7 2.4-1.7 3.5-1.7 3.5.2z" class="node"/></g><path d="M205 40.9c0 1.3 4 4.5 4.6 3.8 1.1-1.1-.4-3.4-2.5-4-1.2-.3-2.1-.2-2.1.2zm9.7 9.9c-1.7 1.8-2.3 4.2-1.1 4.2.8 0 4.3-4.3 4.4-5.3 0-1.3-1.7-.7-3.3 1.1zM37 42.4c0 .2.8 1 1.8 1.7 1.5 1.3 1.6 1.2.3-.4S37 41.6 37 42.4zm104.2 67.7c.2.7 1 1.5 1.7 1.7.8.3 1.2-.1.9-.9-.2-.7-1-1.5-1.7-1.7-.8-.3-1.2.1-.9.9zm6.8 12.4c0 .8.8 1.1 2 .8 1.1-.3 2-.7 2-.8 0-.1-.9-.5-2-.8-1.2-.3-2 0-2 .8zM96 224.9c0 1.1.5 2.3 1 2.6.6.3 1-.3 1-1.4 0-1.1-.4-2.3-1-2.6-.5-.3-1 .3-1 1.4z" class="node" fill="#A0A0A0"/></svg>